<?xml version="1.0" encoding="utf-8"?>
<!-- Generator: Adobe Illustrator 27.0.0, SVG Export Plug-In . SVG Version: 6.00 Build 0)  -->
<svg version="1.1" id="Capa_1" xmlns="http://www.w3.org/2000/svg" xmlns:xlink="http://www.w3.org/1999/xlink" x="0px" y="0px"
	 viewBox="0 0 400 400" style="enable-background:new 0 0 400 400;" xml:space="preserve">
<style type="text/css">
	.st0{fill:none;stroke:#FFFFFF;stroke-width:1.9109;stroke-miterlimit:10;}
	.st1{fill:#FFFFFF;}
	.st2{fill:none;stroke:#FFFFFF;stroke-width:2;stroke-miterlimit:10;}
	.st3{enable-background:new    ;}
</style>
<g>
	<circle class="st0" cx="139.05" cy="104.35" r="7.37"/>
	<circle class="st0" cx="205.81" cy="87.13" r="7.37"/>
	<circle class="st0" cx="240.76" cy="71.02" r="7.37"/>
	<circle class="st1" cx="174.49" cy="104.35" r="7.37"/>
	<line class="st2" x1="146.42" y1="104.35" x2="167.63" y2="104.35"/>
	<circle class="st0" cx="146.42" cy="154.83" r="7.37"/>
	<circle class="st0" cx="173.83" cy="176.67" r="7.37"/>
	<circle class="st1" cx="173.83" cy="130.44" r="7.37"/>
	<circle class="st1" cx="173.83" cy="154.85" r="7.37"/>
	<path class="st2" d="M146.42,147.46c-0.15-0.78,0.03-17.02,0.03-17.02h20.23"/>
	<path class="st2" d="M240.7,77.68c0.15,0.78-0.03,9.46-0.03,9.46h-26.6"/>
	<circle class="st0" cx="208.65" cy="174.25" r="7.37"/>
	<circle class="st1" cx="235.95" cy="154.92" r="7.37"/>
	<path class="st2" d="M235.89,161.71c0,0.82-0.03,12.54-0.03,12.54h-20.23"/>
	<line class="st2" x1="173.83" y1="161.84" x2="173.83" y2="169.46"/>
	<circle class="st0" cx="258.88" cy="130.44" r="7.37"/>
	<circle class="st1" cx="235.95" cy="130.44" r="7.37"/>
	<circle class="st1" cx="235.95" cy="104.35" r="7.37"/>
	<line class="st2" x1="242.93" y1="130.44" x2="251.52" y2="130.44"/>
	<line class="st2" x1="235.95" y1="97.73" x2="235.95" y2="88.05"/>
	<path class="st1" d="M218.44,150.88h-27.06c-4.04,0-7.32-3.28-7.32-7.32V116.5c0-4.04,3.28-7.32,7.32-7.32h27.06
		c4.04,0,7.32,3.28,7.32,7.32v27.06C225.76,147.61,222.48,150.88,218.44,150.88z"/>
	<g class="st3">
		<path class="st1" d="M39.85,290.67v-74.55h-8.66V204.8H59.4v11.32h-8.32v74.55H39.85z"/>
		<path class="st1" d="M65.62,290.67V204.8h24.8v11.27H76.88v24.98h12.86v11.03H76.88v27.32h14.04v11.27H65.62z"/>
		<path class="st1" d="M127.33,285.67c-2.55,3.98-6.56,5.98-12.02,5.98s-9.55-2.12-12.25-6.37c-2.7-4.24-4.06-10.35-4.06-18.32
			v-37.42c0-12.78,2.89-20.77,8.66-23.96c2.13-1.17,4.71-1.76,7.73-1.76c10.4,0,15.6,7.61,15.6,22.83v11.81H120.1v-10.98
			c0-4.42-0.32-7.59-0.97-9.49c-0.65-1.9-1.91-2.85-3.78-2.85c-1.88,0-3.18,1.01-3.91,3.03c-0.73,2.02-1.09,5.11-1.09,9.27v40.11
			c0,4.62,0.35,7.92,1.05,9.9c0.7,1.98,1.98,2.98,3.83,2.98s3.12-1.01,3.83-3.03c0.7-2.02,1.05-5.35,1.05-10V255.1h11.06v12.15
			C131.15,275.54,129.88,281.68,127.33,285.67z"/>
		<path class="st1" d="M140.32,290.67V204.8h8.83l15.68,51.52l-0.8-23.42v-28.1h10.13v85.87h-7.99l-16.1-53.33l0.63,22.54v30.79
			H140.32z"/>
		<path class="st1" d="M213.17,285.45c-2.58,4.13-6.7,6.2-12.38,6.2c-5.67,0-9.84-2.07-12.48-6.22c-2.65-4.15-3.97-10.4-3.97-18.76
			v-39.28c0-15.74,5.53-23.61,16.6-23.61c5.72,0,9.83,2,12.34,6c2.51,4,3.76,9.87,3.76,17.61v39.28
			C217.04,275.05,215.75,281.32,213.17,285.45z M196.67,277.35c0.66,1.98,2.01,2.98,4.06,2.98c2.05,0,3.39-1.02,4.04-3.05
			c0.64-2.03,0.97-5.52,0.97-10.47V226.8c0-4.06-0.33-7.03-0.99-8.9s-1.95-2.81-3.87-2.81s-3.27,0.94-4.04,2.81
			c-0.77,1.87-1.16,4.82-1.16,8.85v40.06C195.68,271.85,196.01,275.36,196.67,277.35z"/>
		<path class="st1" d="M227.25,290.67V204.8h16.98c5.74,0,9.68,2.03,11.79,6.07c2.12,4.05,3.23,10.09,3.34,18.13v1.81
			c0,8.52-1.04,14.99-3.13,19.39c-2.09,4.41-5.96,6.61-11.62,6.61h-6.1v33.86H227.25z M238.52,246.02h3.87
			c2.38,0,3.93-1.07,4.64-3.2c0.71-2.13,1.07-6.19,1.07-12.17V229c-0.03-5.07-0.41-8.7-1.16-10.88s-2.23-3.27-4.48-3.27h-3.95
			V246.02z"/>
		<path class="st1" d="M266.93,290.67V204.8h11.27v74.75h14.25v11.12H266.93z"/>
		<path class="st1" d="M295.56,290.67l10.55-85.87h14.88l11.22,85.87h-10.51l-1.77-15.32H308l-1.6,15.32H295.56z M318.77,264.86
			l-4.96-43.13h-0.17l-4.54,43.13H318.77z"/>
		<path class="st1" d="M345.71,290.67v-34.3l-12.4-51.57h10.76l7.31,32.1h0.17l6.52-32.1h10.72l-11.81,51.57v34.3H345.71z"/>
	</g>
	<g class="st3">
		<path class="st1" d="M71.18,306.56h5.59l6.54,21.58h-4.38l-1.12-4.12h-7.16l-1.03,4.12h-4.42L71.18,306.56z M71.16,321.96h6.06
			l-3.12-11.4h-0.07L71.16,321.96z"/>
		<path class="st1" d="M120.92,306.56h4.27l-4.67,21.58h-4.6l-4.22-15.92l-4.47,15.92h-4.49l-5.21-21.58h4.29l3.37,16.54l4.49-16.54
			h3.8l4.6,16.54L120.92,306.56z"/>
		<path class="st1" d="M129.17,312.42c0-2.45,0.81-4.13,2.43-5.05c1.27-0.72,3.12-1.08,5.55-1.08c3.53,0,5.79,0.79,6.78,2.38
			c0.58,0.94,0.88,2.19,0.88,3.75v9.51c0,2.25-0.58,3.88-1.73,4.91c-1.15,1.03-3.17,1.54-6.05,1.54s-4.91-0.51-6.09-1.54
			c-1.18-1.03-1.76-2.66-1.76-4.9V312.42z M140.15,312.27c0-1.38-0.2-2.36-0.61-2.94c-0.4-0.58-1.22-0.87-2.45-0.87
			s-2.08,0.29-2.56,0.88c-0.48,0.59-0.72,1.56-0.72,2.91v9.7c0,1.64,0.21,2.76,0.63,3.35c0.42,0.59,1.27,0.89,2.54,0.89
			s2.12-0.3,2.54-0.9c0.42-0.6,0.63-1.71,0.63-3.34V312.27z"/>
		<path class="st1" d="M150.82,306.56h8.29c2.35,0,4.04,0.27,5.08,0.8c1.03,0.53,1.65,1.43,1.86,2.71c0.09,0.52,0.13,1.34,0.13,2.45
			c0,1.11-0.27,2.04-0.8,2.79s-1.47,1.24-2.82,1.46c0.99,0.09,1.74,0.37,2.25,0.85c0.51,0.48,0.87,1.24,1.08,2.28
			c0.21,1.04,0.31,2.59,0.31,4.65s0.12,3.25,0.36,3.6h-4.63c-0.24-0.26-0.36-2.69-0.36-7.27c0-1.54-0.28-2.44-0.83-2.69
			c-0.55-0.25-1.39-0.37-2.52-0.37l-2.76-0.09v10.42h-4.65V306.56z M161.57,311.84c0-1.66-0.27-2.62-0.82-2.88
			c-0.55-0.26-1.34-0.39-2.37-0.39h-2.92v7.28h2.96c0.9,0,1.56-0.09,1.98-0.28c0.42-0.19,0.72-0.55,0.9-1.08s0.27-1.37,0.27-2.5
			V311.84z"/>
		<path class="st1" d="M172.22,306.56h4.65v19.48h7.3v2.1h-11.95V306.56z"/>
		<path class="st1" d="M188.19,306.56h7.43c3.02,0,5.11,0.51,6.24,1.53c1.14,1.02,1.71,2.46,1.71,4.33l0.02,9.48
			c0,2.21-0.62,3.81-1.86,4.78c-1.24,0.97-3.33,1.46-6.27,1.46h-7.28V306.56z M198.94,312.36c0-1.35-0.29-2.32-0.88-2.91
			c-0.58-0.59-1.54-0.88-2.88-0.88h-2.38v17.52h2.38c0.9,0,1.6-0.1,2.11-0.29c1.09-0.42,1.64-1.59,1.64-3.51V312.36z"/>
		<path class="st1" d="M221.18,306.56h4.65v21.58h-4.65V306.56z"/>
		<path class="st1" d="M244.85,306.56h4.11v21.58h-3.41l-8.87-14.81l0.27,5.44v9.37h-4.29v-21.58h3.5l9.16,14.69l-0.47-6.24V306.56z
			"/>
		<path class="st1" d="M264.12,306.56h13.05v2.11h-4.06v19.47h-4.63v-19.47h-4.36V306.56z"/>
		<path class="st1" d="M281.03,306.56h11.81v2.11h-7.16v7.38h6.78v2.11h-6.78v7.87h7.25v2.11h-11.9V306.56z"/>
		<path class="st1" d="M297.89,312.79c0-1.63,0.25-2.83,0.74-3.6c0.49-0.77,1.03-1.33,1.62-1.69c1.27-0.78,3.13-1.18,5.57-1.19
			c3.41,0.01,5.61,0.83,6.6,2.46c0.57,0.94,0.85,2.19,0.85,3.75v2.39h-4.56v-2.4c0-1.38-0.14-2.31-0.42-2.8s-0.61-0.81-1-0.97
			c-0.39-0.16-0.88-0.24-1.48-0.24c-1.24,0-2.1,0.32-2.57,0.96s-0.71,1.65-0.71,3.03v9.34c0,1.63,0.21,2.78,0.64,3.43
			c0.43,0.65,1.25,0.97,2.47,0.97s2.04-0.33,2.45-0.98c0.41-0.65,0.62-1.8,0.62-3.43v-2.39h4.6v2.37c0,2.26-0.56,3.93-1.7,5
			s-3.1,1.6-5.92,1.6s-4.82-0.55-6.02-1.65c-1.2-1.1-1.8-2.76-1.8-4.97V312.79z"/>
		<path class="st1" d="M329.94,306.56h4.65v21.58h-4.65v-10.46h-6.33v10.46h-4.65v-21.58h4.65v9.05h6.33V306.56z"/>
	</g>
</g>
</svg>
